PathFileType	4	(X/Y/Z)	2014001\dynamic\2014001_C3_03.trc
DataRate	CameraRate	NumFrames	NumMarkers	Units	OrigDataRate	OrigDataStartFrame	OrigNumFrames
100.000000	100.000000	4	52	mm	100.000000	0	183
Frame#	Time	L_IAS			L_IPS			R_IPS			R_IAS			L_FTC			L_FLE			L_FME			L_FAX			L_TTC			L_FAL			L_TAM			L_FCC			L_FM1			L_FM2			L_FM5			R_FTC			R_FLE			R_FME			R_FAX			R_TTC			R_FAL			R_TAM			R_FCC			R_FM1			R_FM2			R_FM5			CV7			TV10			SXS			SJN			L_SIA			L_SRS			L_SAA			L_SAE			L_HLE			L_HME			L_UOA			L_RSP			L_UHE			L_HM2			L_HM5			R_SIA			R_SRS			R_SAA			R_SAE			R_HLE			R_HME			R_UOA			R_RSP			R_UHE			R_HM2			R_HM5			
		X1	Y1	Z1	X2	Y2	Z2	X3	Y3	Z3	X4	Y4	Z4	X5	Y5	Z5	X6	Y6	Z6	X7	Y7	Z7	X8	Y8	Z8	X9	Y9	Z9	X10	Y10	Z10	X11	Y11	Z11	X12	Y12	Z12	X13	Y13	Z13	X14	Y14	Z14	X15	Y15	Z15	X16	Y16	Z16	X17	Y17	Z17	X18	Y18	Z18	X19	Y19	Z19	X20	Y20	Z20	X21	Y21	Z21	X22	Y22	Z22	X23	Y23	Z23	X24	Y24	Z24	X25	Y25	Z25	X26	Y26	Z26	X27	Y27	Z27	X28	Y28	Z28	X29	Y29	Z29	X30	Y30	Z30	X31	Y31	Z31	X32	Y32	Z32	X33	Y33	Z33	X34	Y34	Z34	X35	Y35	Z35	X36	Y36	Z36	X37	Y37	Z37	X38	Y38	Z38	X39	Y39	Z39	X40	Y40	Z40	X41	Y41	Z41	X42	Y42	Z42	X43	Y43	Z43	X44	Y44	Z44	X45	Y45	Z45	X46	Y46	Z46	X47	Y47	Z47	X48	Y48	Z48	X49	Y49	Z49	X50	Y50	Z50	X51	Y51	Z51	X52	Y52	Z52	

1	0	390.2753906250002	853.348754882813	-138.7963104248047	302.2843322753907	902.9122924804692	-308.2158508300782	211.9166259765626	897.3659057617192	-304.7344970703126	151.0534210205079	862.808227539063	-120.2361297607422	440.8411865234377	779.2109375000005	-233.3383178710939	393.8510742187502	435.7041320800784	-321.0677185058595	284.1964721679689	422.165954589844	-294.1889953613282	395.4825744628909	381.0033264160157	-354.7234497070314	350.5937805175782	346.7868957519532	-299.753387451172	339.3388061523439	74.99124908447268	-457.1393127441409	254.1405029296876	82.90097808837893	-429.4830322265627	292.524627685547	45.66260528564455	-505.364196777344	273.536346435547	21.77904701232911	-325.0760803222657	336.098114013672	30.52202033996583	-317.6559448242189	379.2882690429689	18.54077148437501	-375.4298400878907	85.05500030517581	765.6101684570315	-206.2329254150392	106.8925476074219	438.5444030761721	-65.67185211181643	228.6999969482423	430.8844299316409	-40.19320297241212	103.0738601684571	376.9527282714845	-56.55289459228518	147.8305053710938	394.4541015625002	10.03718090057373	136.2007141113282	80.5728454589844	60.33534240722659	214.278533935547	115.1480941772462	94.58183288574222	196.426971435547	23.27699089050294	51.25043106079104	185.4470977783204	115.7255172729493	213.4122314453126	128.4828033447266	118.7087173461915	202.0220642089845	96.38842010498053	76.40208435058597	165.0536651611329	257.2030334472657	1365.443237304688	-245.937469482422	270.4591369628907	1138.63720703125	-318.6257629394532	261.1596069335939	1130.105590820313	-87.33122253417972	251.8562622070314	1295.419189453125	-120.0831909179688	373.5368957519532	1183.489868164063	-307.5928955078126	354.2189025878907	1311.134887695313	-282.5586547851564	454.0864257812502	1314.556518554688	-193.4916992187501	428.0975036621096	1322.5078125	-157.8138580322266	535.032653808594	1054.197265625	-110.9455795288087	472.5549926757815	1003.595458984375	-146.4597625732422	523.6143798828127	1002.893249511719	-134.4952392578126	432.1477966308596	908.9567260742192	67.5803146362305	507.5588684082034	881.7521972656255	59.58135604858401	416.4883422851565	870.4485473632817	143.2796173095704	495.6646118164065	817.4252929687505	104.6072998046876	167.7301330566407	1177.676635742188	-336.5371398925782	181.7071380615235	1300.343383789063	-300.0118103027345	71.0815124511719	1290.070556640625	-236.7799224853517	74.25298309326175	1290.082397460938	-185.1862945556641	23.41042709350587	1002.090515136719	-294.481903076172	103.5838699340821	989.9620971679692	-306.3500366210939	59.66365814208987	985.4643554687505	-321.222625732422	34.08160781860353	778.239868164063	-233.962127685547	-13.62933921813966	787.100708007813	-298.410369873047	16.95484924316407	685.0582275390627	-226.444549560547	-11.46718978881836	711.0750122070315	-320.7591552734376	
2	0.01	389.9035949707034	851.928344726563	-128.1078338623047	300.8048706054689	901.2451782226567	-297.2234191894532	210.5268707275392	895.433715820313	-293.5228576660157	150.4486236572266	861.096801757813	-108.6807022094727	440.4355773925784	778.359741210938	-223.3336791992189	393.6731567382815	435.7256774902346	-314.3273315429689	284.181610107422	421.505310058594	-287.0150756835939	395.4102478027346	381.4771423339845	-348.6051635742189	350.5490112304689	346.260711669922	-294.3725585937501	339.8472595214845	76.9296569824219	-456.2062683105471	254.6121368408204	84.53543090820315	-428.4960021972659	293.0773010253907	48.3974418640137	-504.927429199219	273.9026489257814	22.0263900756836	-324.8690490722657	336.3657226562501	30.52141761779787	-317.3272399902345	379.4736938476564	18.56427192687989	-375.2062072753907	84.34506988525393	763.6000976562502	-194.3149566650392	107.7401504516602	437.1429748535159	-53.48167800903323	229.9531707763673	429.6769714355471	-29.35418128967287	104.0775451660157	375.3539123535157	-44.28086853027345	149.4604797363282	393.3007812500002	21.98566627502442	138.3184509277344	79.6623458862305	73.3748474121094	216.577606201172	114.3207473754883	107.1483840942383	198.5388488769532	22.52613639831544	63.94116592407229	188.4813079833985	114.913070678711	226.1666717529298	131.4179229736329	117.6509628295899	215.1789398193361	99.33677673339849	75.21163177490237	178.4983673095704	255.7335052490236	1363.661376953125	-234.8599548339845	268.9737854003907	1136.966552734375	-307.6614990234376	259.8665771484376	1128.317626953125	-76.38593292236331	250.4006652832032	1293.602416992188	-109.1215744018555	371.8432006835939	1181.840576171875	-296.9164428710939	352.7530212402345	1309.578857421875	-271.641326904297	452.6215820312502	1312.632934570313	-182.5724334716797	426.6157531738284	1320.584838867188	-146.8224792480469	533.779968261719	1052.350952148438	-100.5748443603516	471.2793884277346	1001.710510253907	-136.0159301757813	522.329040527344	1001.009155273438	-124.1117248535157	431.1365356445315	907.2427368164067	78.12278747558597	506.5091247558596	879.982543945313	70.05034637451175	415.6164550781252	868.8438110351567	153.9064941406251	494.6513366699221	815.7363891601567	115.1426467895508	166.4904479980469	1175.901489257813	-325.7595825195314	180.3702697753907	1298.72021484375	-289.1312561035157	69.71289825439456	1288.222534179688	-226.0104217529298	72.70864105224612	1288.211547851563	-174.2700805664063	22.43263053894044	1000.353698730469	-284.3417358398439	102.6606750488282	988.2941284179692	-296.0363769531251	58.77546691894534	983.900024414063	-311.0400390625001	33.05041122436525	776.142944335938	-225.1334686279298	-14.6806116104126	785.3688964843755	-289.4441528320314	15.74886989593507	683.0242919921877	-218.1191864013673	-12.3885259628296	709.5628051757815	-312.3587036132814	
3	0.02	389.4409790039065	850.5368652343755	-117.1474151611329	299.3085021972657	899.6587524414067	-285.9562377929689	209.1051177978517	893.6640625000005	-282.0975952148439	149.7652130126954	859.572875976563	-96.90650939941412	439.8964843750002	777.4913940429692	-213.0214233398439	393.4659729003909	435.749450683594	-307.0813598632814	284.0847778320314	420.818054199219	-279.3659057617189	395.3104553222659	381.9782104492189	-342.0140991210939	350.4629821777345	345.7153625488282	-288.5724182128907	340.4449157714845	79.10979461669925	-455.153991699219	255.1670227050782	86.3686218261719	-427.3855895996096	293.6990966796876	51.42508697509768	-504.413513183594	274.2918090820314	22.27422904968262	-324.6210021972657	336.6524047851564	30.51773643493654	-316.933807373047	379.637908935547	18.56537246704102	-374.9637756347657	83.51441955566409	761.8794555664065	-182.1130676269532	108.4642410278321	436.1483459472659	-40.72762680053712	230.9442749023439	428.8387451171877	-18.03678131103516	104.9438400268555	374.0195312500001	-31.79003334045412	151.0399322509766	392.0461120605471	34.13991165161134	140.3598632812501	78.34889221191409	84.14569854736331	218.8165130615236	112.770133972168	117.703239440918	200.5528717041017	21.58011627197266	73.82123565673831	191.4261322021485	112.2061843872071	236.8093261718751	134.2731170654297	114.8437728881837	226.2214508056642	102.1987915039063	72.69686126708987	189.4039306640626	254.1659545898439	1361.989624023438	-223.7442474365236	267.3988342285157	1135.336303710938	-296.5569152832032	258.481658935547	1126.656860351563	-65.2961349487305	248.8700714111329	1291.893188476563	-98.07925415039068	369.9898071289064	1180.227905273438	-286.1922607421876	351.141326904297	1308.076782226563	-260.6987609863282	451.0669860839846	1310.74609375	-171.7091979980469	425.0979919433596	1318.721923828125	-135.8584594726563	532.4036254882815	1050.415771484375	-90.57482910156253	469.8710937500002	999.8125610351567	-125.8866806030274	520.919860839844	999.096313476563	-114.1110000610352	430.1942138671877	905.1388549804692	88.18264770507815	505.5404052734377	877.869018554688	79.96799468994143	414.8757629394534	866.7211303710942	163.9868621826172	493.7734985351565	813.610473632813	125.0026245117188	165.0960083007813	1174.171630859375	-314.8308715820314	178.8641662597657	1297.118530273438	-278.076141357422	68.19575500488284	1286.416259765625	-215.0570831298829	71.06767272949222	1286.395263671875	-163.1895904541016	21.33471679687501	998.5949707031255	-273.8176879882814	101.6054229736329	986.6165161132817	-285.4016113281251	57.74744033813479	982.3269042968755	-300.4930419921876	31.94750785827638	774.0984497070317	-215.9090423583986	-15.81602954864503	783.6325073242192	-280.0889282226564	14.49069595336915	681.0005493164065	-209.3952178955079	-13.41292953491212	708.038024902344	-303.556610107422	
4	0.03	388.8762207031252	849.191284179688	-105.886459350586	297.8181457519532	898.1906127929692	-274.4017028808595	207.6670684814454	892.109008789063	-270.4440002441407	149.0200653076172	858.2719116210942	-84.91623687744143	439.2166137695315	776.619262695313	-202.3791351318361	393.2573852539065	435.7912292480471	-299.3072814941407	283.916473388672	420.1092529296877	-271.227508544922	395.2000732421877	382.527313232422	-334.9486694335939	350.3830871582032	345.1680603027345	-282.3245239257814	341.1317443847657	81.56164550781253	-453.9544067382815	255.821746826172	88.42475891113284	-426.1007385253909	294.374969482422	54.79003524780276	-503.7759094238284	274.6882324218751	22.50848579406739	-324.3497924804689	336.9499511718751	30.49058723449708	-316.5026855468751	379.7614135742189	18.54103469848634	-374.7154846191407	82.56177520751956	760.503845214844	-169.6460876464844	109.0412902832032	435.5698547363284	-27.48490142822267	231.6338195800782	428.3695068359377	-6.316236972808841	105.6338500976563	372.9729003906251	-19.0843734741211	152.5327148437501	390.7529907226565	46.48353958129884	142.2282104492188	76.69598388671878	92.92330169677737	220.9001007080079	110.6083450317383	126.4827880859376	202.367401123047	20.51105690002442	81.18788909912112	194.245086669922	107.7611618041993	245.5892333984376	136.9995269775391	110.4199905395508	235.4242401123048	104.884376525879	68.98658752441409	198.0641174316407	252.5051727294923	1360.461547851563	-212.5965576171876	265.7486572265626	1133.777587890625	-285.3127441406251	256.9988403320314	1125.1630859375	-54.06453323364261	247.2645874023439	1290.333862304688	-86.96452331542972	367.9953918457032	1178.683227539063	-275.4061584472657	349.3945312500001	1306.658325195313	-249.7303009033204	449.4291992187502	1308.934936523438	-160.8930358886719	423.5491943359377	1316.959838867188	-124.9164810180665	530.908874511719	1048.435424804688	-80.95429229736331	468.327819824219	997.9437866210942	-116.0682373046876	519.3836669921877	997.1983032226567	-104.5040512084962	429.3316955566409	902.670288085938	97.74207305908209	504.6602172851565	875.4360351562505	89.31121063232425	414.2776489257815	864.1021118164067	173.5034790039063	493.0397033691409	811.070190429688	134.1637573242188	163.5521545410157	1172.517456054688	-303.7461853027345	177.194564819336	1295.572143554688	-266.8567810058595	66.53325653076175	1284.68896484375	-203.9214324951173	69.33848571777347	1284.6650390625	-151.951156616211	20.1206455230713	996.8481445312505	-262.8981933593751	100.4227828979493	984.9658203125005	-274.4372863769532	56.58398437500003	980.7800292968755	-289.5728149414064	30.77899551391603	772.1398925781255	-206.2797698974611	-17.03013420104981	781.9310913085942	-270.3352355957032	13.19344234466553	679.0205688476565	-200.2640533447267	-14.53987884521485	706.5372314453127	-294.3398742675782	
